<?xml version="1.0" standalone="no"?>
<!DOCTYPE svg PUBLIC "-//W3C//DTD SVG 20010904//EN"
 "http://www.w3.org/TR/2001/REC-SVG-20010904/DTD/svg10.dtd">
<svg version="1.0" xmlns="http://www.w3.org/2000/svg"
 width="900.000000pt" height="270.000000pt" viewBox="0 0 900.000000 270.000000"
 preserveAspectRatio="xMidYMid meet">
<metadata>
Created by potrace 1.10, written by Peter Selinger 2001-2011
</metadata>
<g transform="translate(0.000000,270.000000) scale(0.100000,-0.100000)"
fill="#901c1c" stroke="none">
<path d="M1496 2336 c-36 -34 -36 -35 -36 -118 0 -84 0 -84 38 -121 37 -36 39
-37 118 -37 78 0 81 1 114 35 29 30 34 43 37 92 5 83 -4 118 -38 153 -29 29
-34 30 -113 30 -81 0 -84 -1 -120 -34z"/>
<path d="M290 2301 c-11 -21 -15 -1536 -4 -1565 9 -24 239 -24 248 0 3 9 6
159 6 334 0 308 1 320 20 330 13 7 119 10 297 10 153 0 286 0 296 0 15 0 17
11 17 99 0 86 -2 99 -17 103 -10 3 -146 5 -302 6 -198 1 -287 5 -297 13 -11 9
-14 56 -14 235 0 123 1 225 3 226 1 1 173 5 382 8 l380 5 0 105 0 105 -502 3
c-488 2 -502 2 -513 -17z"/>
<path d="M3217 2313 c-4 -3 -7 -358 -7 -788 0 -658 2 -784 14 -794 9 -8 48
-11 112 -9 l99 3 5 350 c6 384 9 405 70 497 58 87 138 128 252 128 39 0 88 -5
109 -12 56 -16 114 -70 146 -136 l28 -57 5 -385 5 -385 115 0 115 0 3 345 c4
440 -6 520 -81 642 -50 84 -151 146 -276 173 -89 19 -137 19 -221 1 -83 -17
-141 -46 -200 -102 -26 -24 -52 -44 -59 -44 -8 0 -11 75 -11 274 0 151 -3 281
-6 290 -5 13 -24 16 -108 16 -57 0 -106 -3 -109 -7z"/>
<path d="M5054 2172 c-10 -11 -44 -45 -74 -78 l-55 -59 -155 -5 c-170 -5 -200
-15 -244 -73 -21 -28 -21 -35 -21 -577 0 -538 0 -549 21 -576 11 -15 33 -37
48 -48 27 -21 36 -21 724 -21 383 0 709 3 724 7 14 5 41 27 60 50 l33 42 0
546 0 545 -23 31 c-46 61 -71 69 -242 72 l-155 4 -73 79 -74 79 -237 0 c-217
0 -239 -2 -257 -18z m473 -173 c21 -23 55 -59 75 -80 l36 -39 154 0 c106 0
158 -4 166 -12 14 -14 18 -944 4 -965 -11 -18 -1277 -20 -1298 -2 -12 10 -14
87 -14 483 0 354 3 475 12 484 8 8 60 12 167 12 l155 0 76 80 76 80 177 0 176
0 38 -41z"/>
<path d="M5200 1766 c-63 -18 -98 -38 -151 -85 -176 -155 -184 -415 -18 -581
175 -175 483 -142 614 64 64 102 83 223 50 333 -34 113 -136 221 -247 261 -57
20 -191 25 -248 8z m185 -152 c75 -21 148 -101 166 -179 24 -108 -22 -213
-121 -272 -134 -81 -304 -13 -356 142 -41 119 27 256 152 305 60 24 91 24 159
4z"/>
<path d="M2320 1886 c-120 -23 -238 -96 -291 -182 -25 -41 -49 -125 -49 -175
0 -55 26 -130 60 -171 50 -61 184 -115 330 -133 124 -15 270 -44 304 -60 42
-20 76 -73 76 -119 0 -121 -203 -201 -376 -148 -87 27 -140 70 -170 139 l-24
53 -111 0 -112 0 6 -54 c18 -173 203 -309 442 -325 234 -16 370 24 486 140 66
67 89 125 89 226 -1 115 -61 208 -168 259 -76 36 -127 47 -364 79 -145 19
-202 42 -224 89 -25 51 -12 102 40 151 65 63 184 82 295 49 57 -16 132 -82
163 -141 l17 -33 90 0 c107 0 121 4 121 37 0 92 -93 214 -206 271 -108 54
-282 74 -424 48z"/>
<path d="M7915 1881 c-286 -82 -442 -348 -396 -678 20 -139 69 -240 162 -327
120 -114 240 -159 419 -160 185 -1 298 44 420 166 54 54 113 164 108 201 -3
21 -7 22 -112 22 l-109 0 -24 -45 c-28 -55 -83 -106 -143 -132 -34 -16 -68
-21 -135 -21 -77 -1 -98 3 -145 24 -105 49 -161 121 -190 247 -20 87 -49 82
446 82 418 0 434 1 444 19 27 51 -5 214 -67 341 -65 134 -181 224 -341 264
-85 21 -257 20 -337 -3z m250 -172 c111 -20 188 -80 231 -177 46 -104 66 -97
-296 -97 l-315 0 -3 22 c-8 54 86 186 160 224 72 37 133 45 223 28z"/>
<path d="M1513 1875 c-11 -8 -13 -109 -11 -580 l3 -570 113 -3 c85 -2 112 0
113 10 1 7 2 267 3 577 2 428 -1 564 -10 568 -24 9 -198 8 -211 -2z"/>
<path d="M6304 1879 c-3 -6 -2 -21 4 -32 6 -12 35 -85 65 -162 31 -77 74 -187
97 -245 23 -58 61 -157 85 -220 24 -63 76 -198 116 -300 39 -102 72 -196 72
-210 0 -40 -80 -197 -113 -220 -24 -17 -44 -20 -132 -20 -56 0 -108 -4 -115
-8 -12 -8 -21 -187 -10 -198 3 -3 76 -5 163 -5 134 2 164 5 204 22 84 36 125
98 210 314 17 44 35 89 40 100 6 11 32 79 59 150 27 72 93 243 146 380 54 138
104 266 111 285 7 19 42 107 77 195 36 88 61 164 57 168 -10 11 -220 11 -231
0 -8 -8 -60 -149 -114 -308 -7 -22 -32 -92 -55 -155 -61 -168 -100 -279 -115
-327 -28 -87 -48 -104 -65 -55 -6 15 -14 36 -19 47 -14 33 -37 95 -71 190 -17
50 -38 107 -46 128 -8 20 -20 54 -28 75 -8 20 -29 78 -46 127 -17 50 -45 124
-61 166 -16 42 -29 81 -29 87 0 6 -7 18 -16 26 -12 13 -39 16 -124 16 -68 0
-111 -4 -116 -11z"/>
</g>
</svg>
